<svg width="22" height="22" viewBox="0 0 22 22" fill="none" xmlns="http://www.w3.org/2000/svg">
<path fill-rule="evenodd" clip-rule="evenodd" d="M6.15469 0C5.44017 0 4.77991 0.381198 4.42265 1L0.577347 7.66025C0.220085 8.27906 0.220085 9.04145 0.577347 9.66025L4.42265 16.3205C4.77991 16.9393 5.44017 17.3205 6.15469 17.3205H13.8453C14.5598 17.3205 15.2201 16.9393 15.5773 16.3205L19.4227 9.66025C19.7799 9.04145 19.7799 8.27906 19.4227 7.66025L15.5773 1C15.2201 0.381198 14.5598 0 13.8453 0H6.15469ZM10 12.6603C12.2091 12.6603 14 10.8694 14 8.66025C14 6.45112 12.2091 4.66025 10 4.66025C7.79086 4.66025 6 6.45112 6 8.66025C6 10.8694 7.79086 12.6603 10 12.6603Z" transform="translate(1 2.33975)" fill="black"/>
</svg>
