<svg width="22" height="22" viewBox="0 0 22 22" fill="none" xmlns="http://www.w3.org/2000/svg">
<g clip-path="url(#clip0)">
<path d="M12.55 11C12.55 14.6334 10.9646 17.2029 9.30349 18.8782C8.47031 19.7185 7.6216 20.3292 6.95486 20.727C6.62134 20.926 6.33924 21.0682 6.13381 21.1579C6.08329 21.18 6.03913 21.1981 6.00142 21.2128C5.98183 21.2017 5.96004 21.189 5.93603 21.1745C5.77065 21.0746 5.54166 20.9154 5.26828 20.6961C4.723 20.2589 4.03323 19.6086 3.35755 18.777C2.00116 17.1077 0.75 14.77 0.75 12C0.75 8.21417 2.26443 5.37877 3.85089 3.48104C4.64536 2.53068 5.45372 1.82115 6.08785 1.35371C6.40543 1.11961 6.67272 0.951095 6.86605 0.845001C6.89903 0.826903 6.92882 0.811194 6.95541 0.797674C6.97453 0.808011 6.9954 0.819622 7.01804 0.832604C7.19332 0.93309 7.43605 1.09347 7.72519 1.3162C8.3022 1.7607 9.03505 2.4312 9.75423 3.31538C11.1921 5.08314 12.55 7.67134 12.55 11ZM5.86395 21.2593C5.86402 21.2592 5.86606 21.2587 5.86992 21.2579C5.86581 21.259 5.86388 21.2594 5.86395 21.2593ZM6.11592 21.2712C6.1246 21.2739 6.1293 21.2759 6.12948 21.2762C6.12966 21.2765 6.12532 21.2751 6.11592 21.2712ZM7.10751 0.730157C7.10735 0.730395 7.1031 0.731936 7.09527 0.734059C7.10377 0.730982 7.10768 0.72992 7.10751 0.730157ZM6.81976 0.732005C6.81159 0.729637 6.80716 0.727926 6.80699 0.727663C6.80682 0.727399 6.81091 0.728583 6.81976 0.732005Z" transform="translate(0 4) scale(-1 1) rotate(90)" stroke="black" stroke-width="1.5"/>
<path fill-rule="evenodd" clip-rule="evenodd" d="M5.5 11C8.53757 11 11 8.53757 11 5.5C11 2.46243 8.53757 0 5.5 0C2.46243 0 0 2.46243 0 5.5C0 8.53757 2.46243 11 5.5 11ZM5.5 7.5C6.60457 7.5 7.5 6.60457 7.5 5.5C7.5 4.39543 6.60457 3.5 5.5 3.5C4.39543 3.5 3.5 4.39543 3.5 5.5C3.5 6.60457 4.39543 7.5 5.5 7.5Z" transform="translate(5.5 5)" fill="black"/>
</g>
<defs>
<clipPath id="clip0">
<rect width="22" height="22" fill="white"/>
</clipPath>
</defs>
</svg>
