<svg width="22" height="22" viewBox="0 0 22 22" fill="none" xmlns="http://www.w3.org/2000/svg">
<path fill-rule="evenodd" clip-rule="evenodd" d="M13.4444 6.79412C13.4444 6.98351 13.4368 7.1711 13.4217 7.35658C12.4194 6.75632 11.2495 6.41176 9.99999 6.41176C8.75048 6.41176 7.58059 6.75632 6.57826 7.35656C6.56322 7.17109 6.55556 6.98351 6.55556 6.79412C6.55556 4.24473 7.94486 2.02329 10 0.861012C12.0551 2.02329 13.4444 4.24473 13.4444 6.79412ZM16.6995 12.6434C16.5169 10.391 15.2472 8.44976 13.4217 7.35658C13.2343 9.66773 11.9025 11.6513 10 12.7272C8.09753 11.6513 6.76565 9.66772 6.57826 7.35656C4.75278 8.44975 3.48311 10.391 3.30048 12.6434C1.32468 11.4602 0 9.28352 0 6.79412C0 3.04183 3.00964 0 6.72222 0C7.91238 0 9.03031 0.312607 10 0.861012C10.9697 0.312607 12.0876 0 13.2778 0C16.9904 0 20 3.04183 20 6.79412C20 9.28353 18.6753 11.4602 16.6995 12.6434ZM3.30048 12.6434C4.3028 13.2437 5.4727 13.5882 6.72222 13.5882C7.91238 13.5882 9.03031 13.2756 10 12.7272C10.9697 13.2756 12.0876 13.5882 13.2778 13.5882C14.5273 13.5882 15.6972 13.2437 16.6995 12.6434C16.7145 12.8289 16.7222 13.0165 16.7222 13.2059C16.7222 16.9582 13.7126 20 9.99999 20C6.28741 20 3.27777 16.9582 3.27777 13.2059C3.27777 13.0165 3.28544 12.8289 3.30048 12.6434Z" transform="translate(21 21) rotate(180)" fill="black"/>
<path fill-rule="evenodd" clip-rule="evenodd" d="M0 0.944809C1.00233 0.344566 2.17222 0 3.42173 0C6.94692 0 9.83835 2.74252 10.1212 6.23168C9.11892 6.83192 7.94903 7.17648 6.69952 7.17648C3.17432 7.17648 0.282898 4.43397 0 0.944809Z" transform="translate(14.4217 14.5882) rotate(180)" fill="black" fill-opacity="0.33"/>
<path fill-rule="evenodd" clip-rule="evenodd" d="M3.44444 11.8662C5.49958 10.7039 6.88889 8.4825 6.88889 5.93311C6.88889 3.38372 5.49958 1.16228 3.44444 0C1.38931 1.16228 0 3.38372 0 5.93311C0 8.4825 1.38931 10.7039 3.44444 11.8662Z" transform="translate(14.4444 20.139) rotate(180)" fill="black" fill-opacity="0.33"/>
<path fill-rule="evenodd" clip-rule="evenodd" d="M0 6.23167C0.282906 2.74252 3.17433 0 6.69952 0C7.94904 0 9.11893 0.344566 10.1213 0.944817C9.83836 4.43398 6.94693 7.17648 3.42175 7.17648C2.17223 7.17648 1.00233 6.83192 0 6.23167Z" transform="translate(17.6995 14.5882) rotate(180)" fill="black" fill-opacity="0.33"/>
</svg>
